<svg width="24" height="24" viewBox="0 0 24 24" fill="none" xmlns="http://www.w3.org/2000/svg">
<circle cx="12" cy="12" r="12" fill="#24282C"/>
<path fill-rule="evenodd" clip-rule="evenodd" d="M17.3857 6.0323C16.9619 6.10768 16.3829 6.29932 15.5388 6.58066L9.04785 8.74432C8.22578 9.01835 7.62763 9.21789 7.19316 9.38741C6.74171 9.56355 6.54362 9.68013 6.46067 9.75985C5.84644 10.3501 5.84644 11.3327 6.46067 11.923C6.54362 12.0027 6.74171 12.1193 7.19316 12.2954C7.62762 12.4649 8.22578 12.6645 9.04784 12.9385C9.06091 12.9429 9.0738 12.9471 9.08651 12.9514C9.37848 13.0486 9.58004 13.1158 9.76307 13.2126C10.2068 13.4472 10.5696 13.8101 10.8043 14.2538C10.9011 14.4368 10.9682 14.6384 11.0655 14.9303C11.0697 14.9431 11.074 14.9559 11.0784 14.969C11.3524 15.7911 11.5519 16.3892 11.7214 16.8237C11.8976 17.2752 12.0142 17.4732 12.0939 17.5562C12.6841 18.1704 13.6668 18.1704 14.257 17.5562C14.3367 17.4732 14.4533 17.2752 14.6294 16.8237C14.799 16.3892 14.9985 15.7911 15.2725 14.969L17.4362 8.47803C17.7175 7.634 17.9092 7.05492 17.9846 6.63118C18.0606 6.20382 17.9856 6.10673 17.9479 6.069C17.9101 6.03126 17.813 5.95628 17.3857 6.0323ZM17.2105 5.04776C17.7203 4.95707 18.2557 4.96261 18.655 5.36189C19.0542 5.76117 19.0598 6.29654 18.9691 6.80633C18.8793 7.31109 18.6629 7.96022 18.3985 8.75337L18.3849 8.79426L16.2212 15.2852L16.2163 15.3001C15.9482 16.1043 15.7408 16.7264 15.561 17.1872C15.3868 17.6338 15.2109 18.0067 14.9781 18.2491C13.9943 19.2728 12.3566 19.2728 11.3728 18.2491C11.1399 18.0067 10.9641 17.6338 10.7898 17.1872C10.6101 16.7264 10.4027 16.1043 10.1346 15.3001L10.1297 15.2852C10.0146 14.9401 9.97364 14.8222 9.92029 14.7213C9.77949 14.4551 9.5618 14.2374 9.29556 14.0966C9.19469 14.0432 9.07677 14.0022 8.73162 13.8872L8.71672 13.8822C7.91254 13.6142 7.29043 13.4068 6.82968 13.227C6.38307 13.0528 6.01013 12.8769 5.76778 12.644C4.74407 11.6603 4.74407 10.0225 5.76778 9.0388C6.01013 8.80591 6.38307 8.63006 6.82968 8.45581C7.29044 8.27603 7.91256 8.06866 8.71678 7.80059L8.73162 7.79564L15.2226 5.63198L15.2634 5.61836C16.0566 5.35395 16.7058 5.13755 17.2105 5.04776Z" fill="#D3F36B"/>
</svg>
